<?xml version="1.0" encoding="UTF-8"?>
<!-- Generator: visioncortex VTracer 0.6.12 -->
<svg width="461" height="133" version="1.1" xmlns="http://www.w3.org/2000/svg">
 <path transform="translate(278,33)" d="m0 0 2 3c-3.63 4.95-7.26 9.9-11 15-4.816-1.204-8.738-3.344-13.125-5.625-6.751-3.229-14.944-3.571-22.211-1.809-3.32 1.338-4.651 2.414-6.664 5.434-0.438 2.938-0.438 2.938 0 6 3.588 3.482 7.083 4.957 11.812 6.438 0.648 0.207 1.296 0.415 1.964 0.628 3.459 1.102 6.934 2.149 10.412 3.188 12.167 3.653 22.232 6.896 29.812 17.746 3.571 6.897 3.213 16.632 1.16 24.023-4.413 9.658-11.725 14.231-21.328 18.032-14.887 4.969-33.175 2.702-47.144-3.805-5.221-2.759-9.51-6.096-13.688-10.25 2.099-3.629 4.376-6.994 6.938-10.312 0.334-0.442 0.334-0.442 2.027-2.676 2.035-2.012 2.035-2.012 6.035-2.012 2.262 1.426 2.262 1.426 4.688 3.312 4.612 3.368 8.797 5.309 14.312 6.688 0.846 0.227 1.691 0.454 2.562 0.688 7.102 0.91 12.892 0.272 19.438-2.688 2.425-2.425 2.686-3.621 3-7-1.068-4.076-2.491-5.769-6-8-2.174-0.775-4.38-1.461-6.602-2.086-1.308-0.378-2.617-0.755-3.925-1.133-2.04-0.577-4.08-1.151-6.121-1.723-25.303-7.138-25.303-7.138-32.227-19.37-2.638-8.648-3.022-16.797 1.031-25.04 5.088-8.45 12.756-13.098 22.074-15.957 17.938-3.29 35.474-0.736 50.77 9.309z" fill="#6366F1"/>
 <path transform="translate(453.11 31.438)" d="m0 0c1.891 1.562 1.891 1.562 3.891 5.562-3.63 4.951-7.26 9.9-11 15-1.444-0.928-2.888-1.856-4.375-2.812-9.232-5.477-17.879-7.275-28.625-6.188-3.561 1.328-5.356 2.356-8 5-0.679 6.105-0.679 6.105 1.57 9.075 3.011 2.386 6.041 3.35 9.68 4.363 0.7 0.208 1.4 0.417 2.121 0.631 2.207 0.656 4.417 1.296 6.629 1.931 27.216 7.825 27.216 7.825 34.023 19.801 3.381 7.49 3.088 16.047 0.227 23.637-3.9 8.46-9.629 12.957-17.989 16.832-15.676 5.754-34.368 4.11-49.414-2.695-5.128-2.664-9.596-5.667-13.847-9.575 0.875-4.407 3.312-7.307 6.062-10.75 0.473-0.601 0.945-1.203 1.432-1.824 1.163-1.48 2.333-2.953 3.506-4.426 3.276 0.6 5.091 1.683 7.625 3.813 8.102 6.289 18.129 9.244 28.375 8.187 8.28-1.921 8.28-1.921 11-6 0.375-3.437 0.375-3.437 0-7-5.308-6.431-13.856-7.719-21.597-9.756-23.5-6.21-23.5-6.21-29.95-15.462-0.397-0.753-0.794-1.506-1.203-2.282-0.408-0.752-0.815-1.505-1.235-2.281-3.147-6.876-2.736-13.769-0.39-20.843 3.996-9.828 9.695-13.47 19.035-17.993 16.375-6.78 37.8-2.87 52.449 6.055z" fill="#6366F1"/>
 <path transform="translate(93,17)" d="m0 0c2.812 1.5 2.812 1.5 5 4 0.134 1.393 0.234 2.79 0.312 4.188 0.439 2.765 1.037 4.294 3.25 6.056 4.028 2.571 8.274 4.715 12.565 6.808 1.634 0.827 3.21 1.768 4.771 2.725 2.102 1.223 2.102 1.223 3.914 0.911 0.722-0.227 1.444-0.454 2.188-0.688 5.277-0.503 5.277-0.503 8 0 2.938 2.438 2.938 2.438 5 5l1 1c0.442 8.977 0.442 8.977-2 12-1.651 0.704-3.317 1.375-5 2 0.023 4.418 0.1 8.833 0.188 13.25 5e-3 1.254 0.011 2.509 0.017 3.801 0.015 0.602 0.015 0.602 0.088 3.652 0.016 1.11 0.031 2.221 0.048 3.364 0.859 3.824 2.5 4.761 5.659 6.933 1.775 3.55 1.748 7.144 1 11-1.771 3.045-3.727 4.694-7 6-2.469-0.246-2.469-0.246-5.25-0.812-9.15-1.444-16.664 4.974-23.969 9.786-1.781 1.026-1.781 1.026-3.781 1.026 0.062 1.052 0.124 2.104 0.188 3.188-0.199 4.037-0.695 5.696-3.188 8.812-3.422 2.566-6.846 2.364-11 2-3.539-1.651-4.811-2.716-7-6-0.014-1.083-0.028-2.166-0.043-3.281-1.266-4.918-3.362-6.033-7.548-8.653-0.898-0.517-1.796-1.033-2.721-1.566-0.455-0.269-0.455-0.269-2.753-1.629-6.195-3.449-10.489-4.811-17.576-3.269-2.359 0.398-2.359 0.398-5.984-1.227-2.538-2.538-3.642-3.874-4.375-7.375 0.14-4.002 0.417-6.242 2.875-9.438 2.125-1.562 2.125-1.562 5.125-1.562v-28l-5-2c-2.35-3.369-2.99-5.448-3.062-9.562 1.091-3.531 2.249-5.365 5.246-7.567 3.756-1.801 7.857-1.535 11.778-0.205 2.852 0.468 4.066-0.463 6.515-1.939 0.835-0.495 1.67-0.99 2.531-1.5 0.432-0.265 0.432-0.265 2.617-1.602 1.721-1.029 3.443-2.057 5.164-3.086 0.76-0.462 1.52-0.924 2.303-1.4 1.908-1.139 1.908-1.139 3.908-2.139 0.492-1.926 0.492-1.926 0.875-4.312 0.812-4.022 1.697-6.195 5.125-8.688 3.817-1.272 6.087-0.877 10 0zm-13 18c-3.016 1.344-3.016 1.344-6.25 3.5-0.565 0.373-1.13 0.746-1.712 1.13-1.685 1.115-3.361 2.242-5.038 3.37-0.94 0.561-1.879 1.121-2.848 1.699-0.813 0.491-1.626 0.982-2.464 1.489-0.719 0.426-1.437 0.853-2.176 1.292-1.512 1.52-1.512 1.52-2.211 3.895 0.823 3.089 1.386 3.392 3.98 5.082 1.396 0.804 2.803 1.589 4.219 2.355 0.715 0.407 1.431 0.814 2.168 1.233 1.768 1.002 3.549 1.981 5.332 2.955l-2 5c-0.941-0.589-1.882-1.178-2.852-1.785-1.257-0.76-2.515-1.519-3.773-2.277-0.617-0.39-1.235-0.78-1.871-1.182-0.612-0.364-1.225-0.728-1.856-1.104-0.555-0.34-1.11-0.68-1.682-1.031-2.834-0.895-5.108-0.243-7.966 0.379-0.087 4.458-0.14 8.916-0.188 13.375-0.025 1.271-0.05 2.542-0.076 3.852-9e-3 1.211-0.019 2.423-0.029 3.671-0.016 1.121-0.031 2.242-0.048 3.396 0.113 0.893 0.225 1.786 0.341 2.706 3 2 3 2 5.262 1.879 3.525-1.132 6.463-2.949 9.55-4.941 0.299-0.189 0.299-0.189 1.811-1.143 1.463-0.925 2.921-1.859 4.377-2.795l1 6c-0.999 0.508-1.998 1.016-3.027 1.539-1.304 0.694-2.608 1.39-3.911 2.086-0.659 0.331-1.318 0.663-1.998 1.004-1.904 1.035-1.904 1.035-5.064 3.371-0.698 3.146-0.698 3.146-1 6 3.548 2.211 7.116 4.39 10.688 6.562 1.007 0.629 2.014 1.257 3.052 1.905 0.977 0.59 1.953 1.179 2.959 1.787 0.448 0.275 0.448 0.275 2.714 1.666 2.587 1.08 2.587 1.08 7.587 0.08l1-20h5l1 20c5.342 1.068 5.754 1.048 10.082-1.527 0.466-0.273 0.466-0.273 2.822-1.651 0.96-0.58 1.92-1.161 2.908-1.76 0.49-0.288 0.49-0.288 2.967-1.748 2.415-1.425 4.821-2.863 7.221-4.314 0.262-2.801 0.262-2.801 0-6-1.793-1.793-1.793-1.793-4.188-3.188-0.408-0.245-0.408-0.245-2.476-1.488-0.771-0.437-1.542-0.874-2.336-1.324-0.505-0.309-0.505-0.309-3.062-1.875-0.64-0.371-1.279-0.743-1.938-1.125l1-6c1.025 0.661 2.05 1.323 3.105 2.004 1.361 0.854 2.721 1.706 4.083 2.558 0.673 0.438 1.347 0.876 2.041 1.327 5.06 3.135 5.06 3.135 8.697 3.013 2.074-0.902 2.074-0.902 3.074-2.902 0.016-1.961-0.035-3.923-0.121-5.883-0.048-1.166-0.097-2.333-0.147-3.535-0.028-0.612-0.028-0.612-0.17-3.707-0.052-1.231-0.104-2.462-0.158-3.73-0.13-3.049-0.265-6.097-0.404-9.145-3.869-1.025-4.731-1.125-8.551 0.652-1.262 0.747-2.516 1.51-3.761 2.286-0.646 0.386-1.291 0.772-1.956 1.169-1.585 0.952-3.16 1.921-4.732 2.893l-4-5c0.717-0.267 1.433-0.534 2.172-0.809 2.873-1.21 5.418-2.633 8.078-4.253 0.871-0.528 1.743-1.055 2.641-1.598 2.109-1.34 2.109-1.34 3.109-2.34 0.354-2.844 0.354-2.844 0-6-1.956-1.906-1.956-1.906-4.672-3.5-0.974-0.576-1.949-1.152-2.953-1.746-1.031-0.579-2.063-1.158-3.125-1.754-1.016-0.61-2.032-1.219-3.078-1.848-5.653-3.265-5.653-3.265-8.172-4.152l-4 2v20h-7v-20l-5-2z" fill="#6366F1"/>
 <path transform="translate(293.52 23.876)" d="m0 0c0.396 2e-3 0.396 2e-3 2.398 0.011 0.829 0 1.658 0 2.512-1e-3 2.755 1e-3 5.509 9e-3 8.263 0.017 1.904 2e-3 3.808 3e-3 5.713 4e-3 5.022 4e-3 10.044 0.014 15.067 0.025 5.121 0.01 10.242 0.015 15.362 0.02 10.056 0.01 20.111 0.028 30.166 0.048v20h-31c6e-3 2.449 0.011 4.897 0.016 7.42 0.017 8.071 0.028 16.141 0.036 24.212 5e-3 4.895 0.013 9.791 0.024 14.686 0.011 4.72 0.017 9.441 0.019 14.161 2e-3 1.805 6e-3 3.61 0.011 5.415 7e-3 2.519 8e-3 5.038 8e-3 7.557 3e-3 0.754 7e-3 1.508 0.011 2.285-0.011 5.15-0.011 5.15-1.125 6.264-1.622 0.1-3.249 0.131-4.875 0.133-0.984 2e-3 -1.969 3e-3 -2.984 4e-3 -1.036-4e-3 -2.073-8e-3 -3.141-0.012-0.518 2e-3 -0.518 2e-3 -3.14 0.012-0.985-1e-3 -1.97-2e-3 -2.985-4e-3 -0.91-1e-3 -1.82-2e-3 -2.757-3e-3 -2.118-0.13-2.118-0.13-3.118-1.13-0.095-2.525-0.125-5.023-0.113-7.549 0-0.79 0-1.58-1e-3 -2.394 1e-3 -2.624 9e-3 -5.249 0.017-7.873 2e-3 -1.815 3e-3 -3.629 4e-3 -5.444 4e-3 -4.785 0.014-9.571 0.025-14.357 0.01-4.879 0.014-9.759 0.02-14.638 0.01-9.582 0.028-19.163 0.048-28.745h-31c-0.01-1.557-0.01-1.557-0.062-9.437-9e-3 -0.983-0.018-1.966-0.028-2.978-2e-3 -0.769-5e-3 -1.538-7e-3 -2.331-3e-3 -0.395-3e-3 -0.395-0.016-2.396 0.248-4.06 3.272-2.976 6.632-2.982z" fill="#6366F1"/>
 <path transform="translate(28.031 15.77)" d="m0 0c0.575 0 0.575 0 3.484 1e-3 2.424 3e-3 4.848 0.011 7.272 0.024 3.7 0.018 7.4 0.02 11.099 0.02 2.361 5e-3 4.722 0.011 7.083 0.017 1.101 2e-3 2.202 3e-3 3.337 4e-3 5.335 0.033 10.437 0.228 15.694 1.164-0.99 3.3-1.98 6.6-3 10-19.8 0.33-39.6 0.66-60 1-1.646 6.584-2.678 14.291-1 21 2.298 2.468 4.304 3.424 7.383 4.754 5.093 2.425 7.546 7.105 9.992 11.996 1.598 8.31 1.485 15.517-2.75 22.989-3.887 5.409-8.37 9.003-14.625 11.261-0.108 2.918-0.188 5.832-0.25 8.75-0.034 0.825-0.067 1.65-0.102 2.5-0.013 0.8-0.026 1.599-0.039 2.422-0.021 0.733-0.042 1.467-0.063 2.222 0.657 3.049 2.062 4.151 4.454 6.106 2.645 0.519 2.645 0.519 5.686 0.546 0.571 0.01 0.571 0.01 3.457 0.06 1.227 1e-3 2.453 3e-3 3.716 4e-3 0.63 8e-3 0.63 8e-3 3.817 0.05 3.341 0.04 6.681 0.064 10.021 0.079 3.413 0.019 6.824 0.061 10.236 0.101 6.689 0.074 13.378 0.124 20.067 0.16 0.99 3.3 1.98 6.6 3 10-8.093 0.093-16.186 0.164-24.28 0.208-3.759 0.021-7.517 0.049-11.276 0.094-3.631 0.044-7.261 0.068-10.893 0.078-1.381 7e-3 -2.763 0.022-4.144 0.043-13.439 0.203-13.439 0.203-19.407-4.423-4.932-5.064-6.264-10.321-6.196-17.273 7e-3 -1.154 0.013-2.307 0.02-3.496 0.017-1.19 0.033-2.38 0.051-3.606 9e-3 -1.213 0.018-2.426 0.027-3.675 0.024-2.984 0.056-5.966 0.098-8.95 1.067-0.292 2.134-0.585 3.234-0.886 5.25-1.552 10.063-3.137 13.703-7.364 2.377-6.15 2.712-10.978 0.059-16.992-1.63-2.876-3.091-4.15-5.996-5.758-2.622-0.672-5.218-1.182-7.891-1.605-2.109-0.395-2.109-0.395-3.109-1.395-0.284-4.18-0.232-8.373-0.25-12.562-0.021-1.169-0.042-2.337-0.063-3.541-0.034-7.552 0.358-13.498 4.672-19.92 0.459-0.446 0.918-0.892 1.391-1.352 0.448-0.461 0.897-0.922 1.359-1.398 6.297-4.085 13.716-3.504 20.922-3.457z" fill="#6366F1"/>
 <path transform="translate(170,20)" d="m0 0c4.785 4.282 6.745 7.704 7.243 14.144-4e-3 1.093-8e-3 2.187-0.013 3.313-1e-3 1.194-3e-3 2.389-5e-3 3.619-0.013 1.233-0.025 2.466-0.037 3.736-1e-3 0.627-1e-3 0.627-2e-3 3.795-0.046 9.253-0.046 9.253-1.186 10.393-1.579 0.295-3.163 0.561-4.75 0.812-4.417 0.876-7.207 1.684-10.25 5.188-2.639 4.318-3.311 8.118-2.625 13.125 1.136 4.473 2.858 7.008 6.543 9.762 2.989 1.598 5.93 2.264 9.262 2.789 1.82 0.324 1.82 0.324 2.82 1.324 0.312 4.347 0.279 8.706 0.312 13.062 0.015 0.609 0.015 0.609 0.088 3.686 0.052 7.257-0.405 12.125-4.4 18.252-4.847 4.605-8.576 6.254-15.237 6.227h-3.822c-1.371-0.011-2.742-0.021-4.113-0.032-1.407-3e-3 -2.813-6e-3 -4.22-8e-3 -3.696-8e-3 -7.391-0.028-11.087-0.05-3.774-0.02-7.548-0.029-11.322-0.039-7.4-0.022-14.799-0.056-22.199-0.098 0.99-3.3 1.98-6.6 3-10 1.675-0.02 3.351-0.04 5.077-0.06 6.21-0.076 12.419-0.165 18.629-0.257 2.689-0.04 5.378-0.074 8.066-0.105 3.863-0.045 7.725-0.103 11.587-0.164 1.205-0.011 2.409-0.023 3.65-0.035 1.121-0.02 2.241-0.04 3.396-0.06 0.986-0.013 1.972-0.027 2.988-0.041 2.694-0.287 4.341-0.816 6.607-2.278 1.148-2.297 1.116-3.583 1.098-6.133-4e-3 -0.805-7e-3 -1.611-0.01-2.441-8e-3 -0.842-0.017-1.684-0.026-2.551-4e-3 -0.849-9e-3 -1.699-0.013-2.574-0.012-2.101-0.03-4.201-0.049-6.301-0.267-0.122-0.267-0.122-1.616-0.741-7.197-3.424-11.238-7.659-15.322-14.509-2.037-7.192-2.203-14.088 0.876-21 3.655-6.475 9.282-11.675 16.062-14.75 0.027-2.938 0.047-5.875 0.062-8.812 5e-3 -0.417 5e-3 -0.417 0.026-2.526 2e-3 -0.401 2e-3 -0.401 0.01-2.432 2e-3 -0.369 2e-3 -0.369 0.016-2.237-0.114-1.993-0.114-1.993-1.114-4.993 0.619-0.392 1.238-0.784 1.875-1.188 2.45-2.089 3.144-3.787 4.125-6.812z" fill="#6366F1"/>
 <path transform="translate(94,63)" d="m0 0c3.012 1.777 5.411 3.822 7 7 0.62 4.292 0.951 8.321-1.234 12.18-2.48 2.958-4.05 4.581-7.766 5.82-5.02 0.372-7.997 0.137-12-3-3.39-3.484-4.902-6.097-5-11 1.514-4.622 3.204-7.916 7-11 4.189-1.396 7.737-1.082 12 0z" fill="#6366F1"/>
 <path transform="translate(293.52 23.876)" d="m0 0c0.396 2e-3 0.396 2e-3 2.398 0.011 0.829 0 1.658 0 2.512-1e-3 2.755 1e-3 5.509 9e-3 8.263 0.017 1.904 2e-3 3.808 3e-3 5.713 4e-3 5.022 4e-3 10.044 0.014 15.067 0.025 5.121 0.01 10.242 0.015 15.362 0.02 10.056 0.01 20.111 0.028 30.166 0.048v20h-31c6e-3 2.449 0.011 4.897 0.016 7.42 0.017 8.071 0.028 16.141 0.036 24.212 5e-3 4.895 0.013 9.791 0.024 14.686 0.011 4.72 0.017 9.441 0.019 14.161 2e-3 1.805 6e-3 3.61 0.011 5.415 7e-3 2.519 8e-3 5.038 8e-3 7.557 3e-3 0.754 7e-3 1.508 0.011 2.285-0.011 5.15-0.011 5.15-1.125 6.264-1.622 0.1-3.249 0.131-4.875 0.133-0.984 2e-3 -1.969 3e-3 -2.984 4e-3 -1.036-4e-3 -2.073-8e-3 -3.141-0.012-0.518 2e-3 -0.518 2e-3 -3.14 0.012-0.985-1e-3 -1.97-2e-3 -2.985-4e-3 -0.91-1e-3 -1.82-2e-3 -2.757-3e-3 -2.118-0.13-2.118-0.13-3.118-1.13-0.095-2.525-0.125-5.023-0.113-7.549 0-0.79 0-1.58-1e-3 -2.394 1e-3 -2.624 9e-3 -5.249 0.017-7.873 2e-3 -1.815 3e-3 -3.629 4e-3 -5.444 4e-3 -4.785 0.014-9.571 0.025-14.357 0.01-4.879 0.014-9.759 0.02-14.638 0.01-9.582 0.028-19.163 0.048-28.745h-31c-0.01-1.557-0.01-1.557-0.062-9.437-9e-3 -0.983-0.018-1.966-0.028-2.978-2e-3 -0.769-5e-3 -1.538-7e-3 -2.331-3e-3 -0.395-3e-3 -0.395-0.016-2.396 0.248-4.06 3.272-2.976 6.632-2.982zm-5.519 1.124v18h31c-5e-3 2.205-0.01 4.41-0.016 6.682-0.016 7.301-0.027 14.601-0.035 21.901-6e-3 4.424-0.013 8.849-0.024 13.273-0.011 4.273-0.017 8.546-0.02 12.819-1e-3 1.627-5e-3 3.254-0.01 4.881-8e-3 2.285-9e-3 4.571-8e-3 6.857-1e-3 0.649-1e-3 0.649-7e-3 3.936 0.12 3.651 0.12 3.651 1.12 10.651h21l1-81c9.57-0.33 19.14-0.66 29-1v-16c-18.906-0.842-37.763-1.128-56.687-1.062-2.575 5e-3 -5.15 0.01-7.725 0.014-6.196 0.01-12.392 0.028-18.588 0.048z" fill="#6366F1"/>
 <path transform="translate(143)" d="m0 0c1.763 2.644 2.617 4.53 3.562 7.5 0.249 0.773 0.498 1.547 0.754 2.344 0.226 0.711 0.452 1.423 0.684 2.156 1 3 1 3 2.938 4 4.33 1.414 8.688 2.726 13.062 4-1 2-1 2-3.328 2.859-0.482 0.147-0.482 0.147-2.922 0.891-5.429 1.92-7.77 3.315-10.75 8.25-1.186 2.957-2.16 5.928-3 9-2-1-2-1-2.895-3.363-0.302-0.974-0.605-1.947-0.917-2.949-1.646-4.626-2.675-7.333-7.188-9.688-3.298-1.155-6.615-2.132-10-3v-2c0.82-0.231 1.64-0.461 2.484-0.699 8.716-2.638 8.716-2.638 12.078-5.426 1.747-3.492 2.827-6.997 3.825-10.766 0.613-2.109 0.613-2.109 1.613-3.109z" fill="#6366F1"/>
 <path transform="translate(16,16)" d="m0 0c7.42-0.025 14.84-0.043 22.26-0.055 2.522-5e-3 5.045-0.012 7.568-0.02 3.631-0.013 7.263-0.018 10.895-0.023 1.123-5e-3 2.246-0.01 3.403-0.015 5.403-1e-3 10.554 0.151 15.874 1.113-0.99 3.3-1.98 6.6-3 10h-57v-1h56l1-8h-57v-2z" fill="#6366F1"/>
 <path transform="translate(100,31)" d="m0 0c5.916 1.658 10.526 4.659 15.609 7.986 4.93 3.099 4.93 3.099 7.474 2.633 0.632-0.205 1.265-0.409 1.917-0.619 1.415-0.065 2.833-0.086 4.25-0.062 0.619 0.01 0.619 0.01 3.75 0.062v2l-13 1v2h-2l-1 2c-3.484-1.95-6.961-3.911-10.438-5.875-0.496-0.278-0.496-0.278-3.009-1.684-0.945-0.535-1.889-1.07-2.862-1.621-0.874-0.492-1.749-0.984-2.65-1.491-2.041-1.329-2.041-1.329-3.041-3.329 0.639-0.124 1.279-0.248 1.938-0.375 0.34-0.103 0.34-0.103 2.062-0.625l1-2z" fill="#6366F1"/>
 <path transform="translate(288,24)" d="m0 0h85v19h-31v-1h29v-16c-1.605 6e-3 -3.209 0.012-4.863 0.018-17.28 0.042-34.547-0.181-51.825-0.518-2.574-0.048-5.149-0.097-7.724-0.145-6.196-0.115-12.392-0.234-18.588-0.355v-1z" fill="#6366F1"/>
 <path transform="translate(104.6 15.902)" d="m0 0c1.488 7e-3 2.977 0.019 4.465 0.035 0.758 5e-3 1.517 9e-3 2.299 0.014 1.879 0.012 3.759 0.03 5.638 0.049l1 2-1 3 2 6h-15l-4-10c1-1 1-1 4.598-1.098z" fill="#6366F1"/>
 <path transform="translate(7,20)" d="m0 0 2 1c-0.639 0.784-1.279 1.567-1.938 2.375-3.073 3.912-3.223 6.003-3.378 10.945-0.042 1.257-0.084 2.514-0.127 3.809-0.04 1.319-0.079 2.637-0.119 3.996-0.044 1.34-0.087 2.68-0.131 4.02-0.107 3.285-0.209 6.57-0.307 9.855 0.389 0.077 0.389 0.077 2.355 0.465 2.236 0.452 4.438 0.963 6.645 1.535v2c0.99 0.33 1.98 0.66 3 1l-2 1c-0.536-0.289-1.072-0.578-1.625-0.875-2.363-1.119-3.993-1.407-6.563-1.687-3.812-0.438-3.812-0.438-4.812-1.438-0.284-4.18-0.232-8.374-0.25-12.562-0.021-1.169-0.041-2.338-0.062-3.542-0.036-7.771 0.164-14.298 5.5-20.396 0.598-0.495 1.196-0.99 1.812-1.5z" fill="#6366F1"/>
 <path transform="translate(109.01 129.98)" d="m0 0c1.261 0.02 2.522 0.04 3.822 0.061 1.381 0.027 2.763 0.054 4.144 0.082 1.41 0.024 2.82 0.048 4.229 0.071 3.712 0.063 7.424 0.132 11.136 0.203 3.788 0.07 7.575 0.135 11.362 0.2 7.432 0.129 14.865 0.265 22.297 0.405-2 2-2 2-4.632 2.24-1.115-4e-3 -2.23-9e-3 -3.379-0.013-0.63 0-0.63 0-3.821-1e-3 -1.382-0.01-2.763-0.02-4.145-0.031-1.409-4e-3 -2.819-7e-3 -4.229-9e-3 -3.712-7e-3 -7.424-0.027-11.136-0.049-3.787-0.02-7.574-0.03-11.361-0.04-7.433-0.021-14.865-0.055-22.297-0.097v-2c2.76-1.38 4.922-1.077 8.01-1.022z" fill="#6366F1"/>
 <path transform="translate(72,81)" d="m0 0 2 6c-1.765 1.175-3.537 2.34-5.312 3.5-0.987 0.65-1.973 1.299-2.989 1.969-2.699 1.531-2.699 1.531-5.699 1.531-1.056-3.168-1.288-4.019 0-7 2.215-1.703 2.215-1.703 4.938-3.25 0.447-0.26 0.447-0.26 2.714-1.578 2.348-1.172 2.348-1.172 4.348-1.172z" fill="#6366F1"/>
 <path transform="translate(68,16)" d="m0 0 8 1c-0.99 3.3-1.98 6.6-3 10h-57v-1h56l1-8h-5v-2z" fill="#6366F1"/>
 <path transform="translate(11,91)" d="m0 0c-5.75 2-5.75 2-8 2v27h-1c-1.099-6.168-1.115-12.184-1.062-18.438 4e-3 -1.017 9e-3 -2.035 0.013-3.083 0.012-2.493 0.028-4.986 0.049-7.479 6.518-1.205 6.518-1.205 10 0z" fill="#6366F1"/>
 <path transform="translate(111,58)" d="m0 0 1 4 1 3-8 4c-3-3.75-3-3.75-3-6l9-5z" fill="#6366F1"/>
 <path transform="translate(405,124)" d="m0 0 28 1c-2 2-2 2-4.075 2.243-0.838-4e-3 -1.675-8e-3 -2.538-0.013-0.919-1e-3 -1.837-3e-3 -2.783-5e-3 -0.963-0.013-1.925-0.025-2.916-0.037-0.951-1e-3 -1.902-2e-3 -2.881-2e-3 -4.425-0.028-8.474-0.216-12.807-1.186v-2z" fill="#6366F1"/>
 <path transform="translate(63,57)" d="m0 0c4.11 1.45 7.433 3.511 11 6l-2 6-8-4 3-3v-2l-4-1v-2z" fill="#6366F1"/>
 <path transform="translate(0,92)" d="m0 0h1c0.025 0.584 0.05 1.168 0.076 1.769 0.118 2.702 0.24 5.404 0.362 8.106 0.039 0.918 0.078 1.836 0.119 2.781 0.281 6.142 0.766 12.234 1.443 18.344h2v3c0.99 0.33 1.98 0.66 3 1l-2 2c-4.76-5.395-6.266-10.122-6.195-17.273 6e-3 -1.154 0.013-2.308 0.019-3.497 0.017-1.189 0.034-2.379 0.051-3.605 9e-3 -1.213 0.018-2.426 0.027-3.676 0.024-2.983 0.057-5.966 0.098-8.949z" fill="#6366F1"/>
 <path transform="translate(203,45)" d="m0 0h2c-0.012 0.846-0.023 1.691-0.035 2.562-0.05 6.254 0.066 12.258 1.035 18.438-2.879-2.879-3.503-6.071-4-10 0.122-3.699 0.501-7.334 1-11z" fill="#6366F1"/>
 <path transform="translate(212,95)" d="m0 0c3.366 1.443 5.51 3.333 8 6-0.763-0.165-1.526-0.33-2.312-0.5-2.688-0.5-2.688-0.5-5.688-0.5l-2 2c-0.99-0.33-1.98-0.66-3-1l5-6z" fill="#6366F1"/>
 <path transform="translate(27,65)" d="m0 0h2c1.067 3.462 1.102 6.64 1.062 10.25-9e-3 1.078-0.018 2.155-0.027 3.266-0.011 0.819-0.023 1.639-0.035 2.484l-2 1-1-17z" fill="#6366F1"/>
 <path transform="translate(392,30)" d="m0 0 1 3c-1.623 1.709-3.293 3.374-5 5h-2l-1 4h-2c1.491-4.607 3.785-7.464 7-11l2-1z" fill="#6366F1"/>
 <path transform="translate(85,62)" d="m0 0c5.027 0.12 8.099 0.246 12.062 3.562 0.64 0.805 1.279 1.609 1.938 2.438h-3v-2c-2.995-0.872-5.636-1.108-8.75-1.062-0.4 4e-3 -0.4 4e-3 -2.422 0.027-0.302 6e-3 -0.302 6e-3 -1.828 0.035l2-3z" fill="#6366F1"/>
 <path transform="translate(133,107)" d="m0 0-1 2c-0.831-0.084-1.663-0.168-2.52-0.254-0.543-0.051-0.543-0.051-3.292-0.308-1.079-0.105-2.158-0.209-3.27-0.317-2.918-0.121-2.918-0.121-5.918 0.879v-2c4.652-2.326 11.074-0.985 16 0z" fill="#6366F1"/>
 <path transform="translate(132,20)" d="m0 0 2 3c-4.002 1.601-7.046 0.293-11-1v-2c3.315-1.105 5.661-1.054 9 0z" fill="#6366F1"/>
 <path transform="translate(79,21)" d="m0 0c1.456 4.521 0.27 7.516-1 12-2.31 0.33-4.62 0.66-7 1 1.964-1.506 3.783-2.891 6-4 0.633-2.066 0.633-2.066 1.125-4.562 0.168-0.827 0.335-1.653 0.508-2.504 0.121-0.638 0.242-1.277 0.367-1.934z" fill="#6366F1"/>
 <path transform="translate(221,27)" d="m0 0v2c-1.863 1.543-1.863 1.543-4.312 3.188-0.801 0.55-1.602 1.1-2.426 1.667-0.747 0.378-1.493 0.756-2.262 1.145-0.99-0.33-1.98-0.66-3-1 1.29-0.981 2.582-1.96 3.875-2.938 0.36-0.272 0.36-0.272 2.18-1.652 3.325-2.41 3.325-2.41 5.945-2.41z" fill="#6366F1"/>
 <path transform="translate(70,81)" d="m0 0h2l2 6c-5.75 4-5.75 4-8 4v-2l4-2v-6z" fill="#6366F1"/>
 <path transform="translate(140,31)" d="m0 0c3 1 3 1 4 2h1c0.125 2.875 0.125 2.875 0 6l-2 2c-0.504-1.29-1.003-2.582-1.5-3.875-0.278-0.719-0.557-1.439-0.844-2.18-0.656-1.945-0.656-1.945-0.656-3.945z" fill="#6366F1"/>
 <path transform="translate(116,16)" d="m0 0 2 2c-0.375 3.625-0.375 3.625-1 7h-2v-7h-7v-1c6.055-0.977 6.055-0.977 8-1z" fill="#6366F1"/>
 <path transform="translate(102,110)" d="m0 0 2 1c-4.308 4.923-4.308 4.923-7.812 5.312-0.361-0.051-0.361-0.051-2.188-0.312v-2c1.287-0.697 2.579-1.382 3.875-2.062 0.719-0.383 1.439-0.766 2.18-1.161 0.642-0.256 1.284-0.513 1.945-0.777z" fill="#6366F1"/>
 <path transform="translate(452,32)" d="m0 0 4 2v4l-3 3-1-9z" fill="#6366F1"/>
 <path transform="translate(208,117)" d="m0 0c4.389 0.665 7.981 2.188 12 4v2c-5.023-1.182-8.095-2.45-12-6z" fill="#6366F1"/>
 <path transform="translate(203,106)" d="m0 0c2.329 3.493 2 4.929 2 9l-5-5c0.99-1.32 1.98-2.64 3-4z" fill="#6366F1"/>
 <path transform="translate(68,16)" d="m0 0 8 1-3 9h-1l1-8h-5v-2z" fill="#6366F1"/>
 <path transform="translate(386,99)" d="m0 0 1 4c-2.438 2.75-2.438 2.75-5 5l-2-1c1.98-2.64 3.96-5.28 6-8z" fill="#6366F1"/>
 <path transform="translate(259,98)" d="m0 0 2 3-1 3h-2v2c-1.98 0.33-3.96 0.66-6 1 0.784-0.557 1.567-1.114 2.375-1.688 2.712-2.389 3.586-3.913 4.625-7.312z" fill="#6366F1"/>
 <path transform="translate(114,59)" d="m0 0c2.688 0.312 2.688 0.312 5 1l-4 4-4-2c1.188-1.562 1.188-1.562 3-3z" fill="#6366F1"/>
 <path transform="translate(100,31)" d="m0 0c4.508 1.258 7.491 2.904 11 6-0.99 0.33-1.98 0.66-3 1v-2c-1.134-0.268-2.269-0.536-3.438-0.812-1.175-0.392-2.351-0.784-3.562-1.188l-1-3z" fill="#6366F1"/>
 <path transform="translate(447,46)" d="m0 0h2l-2 5c-3 0-3 0-5-1v-2h5v-2z" fill="#6366F1"/>
 <path transform="translate(44,41)" d="m0 0c7.385-0.369 7.385-0.369 10.5 1.5l1.5 1.5h-6v-2h-6v-1z" fill="#6366F1"/>
 <path transform="translate(73,126)" d="m0 0c2 3 2 3 2 6l-5-1c1.875-3.875 1.875-3.875 3-5z" fill="#6366F1"/>
 <path transform="translate(401,103)" d="m0 0 10 3v1c-2.97-0.33-5.94-0.66-9-1l-1-3z" fill="#6366F1"/>
 <path transform="translate(210,97)" d="m0 0h3c-0.75 1.938-0.75 1.938-2 4-2.125 0.75-2.125 0.75-4 1 1.312-2.5 1.312-2.5 3-5z" fill="#6366F1"/>
</svg>
